<svg width="25" height="24" viewBox="0 0 25 24" fill="none" xmlns="http://www.w3.org/2000/svg">
<g clip-path="url(#clip0_536_1664)">
<path d="M-3.5 0H28.5V24H-3.5V0Z" fill="#012169"/>
<path d="M0.25 0L12.45 9.05L24.6 0H28.5V3.1L16.5 12.05L28.5 20.95V24H24.5L12.5 15.05L0.55 24H-3.5V21L8.45 12.1L-3.5 3.2V0H0.25Z" fill="white"/>
<path d="M17.7 14.05L28.5 22V24L14.95 14.05H17.7ZM8.5 15.05L8.8 16.8L-0.8 24H-3.5L8.5 15.05ZM28.5 0V0.15L16.05 9.55L16.15 7.35L26 0H28.5ZM-3.5 0L8.45 8.8H5.45L-3.5 2.1V0Z" fill="#C8102E"/>
<path d="M8.55 0V24H16.55V0H8.55ZM-3.5 8V16H28.5V8H-3.5Z" fill="white"/>
<path d="M-3.5 9.65V14.45H28.5V9.65H-3.5ZM10.15 0V24H14.95V0H10.15Z" fill="#C8102E"/>
</g>
<defs>
<clipPath id="clip0_536_1664">
<rect x="0.5" width="24" height="24" rx="12" fill="white"/>
</clipPath>
</defs>
</svg>
